<svg xmlns="http://www.w3.org/2000/svg"><polyline points="50,350 50.0,58.8983050847458 64.8936170212766,60.16949152542372 79.7872340425532,61.4406779661017 94.68085106382978,63.98305084745766 109.57446808510639,65.25423728813558 124.46808510638297,66.52542372881356 139.36170212765956,69.06779661016952 154.25531914893617,71.61016949152543 169.14893617021278,75.42372881355931 184.04255319148936,77.96610169491527 198.93617021276594,88.13559322033899 213.82978723404256,90.67796610169495 228.72340425531914,85.59322033898309 243.61702127659575,79.23728813559325 258.51063829787233,77.96610169491527 273.40425531914894,76.69491525423729 288.29787234042556,75.42372881355931 303.1914893617021,74.15254237288138 318.0851063829787,72.8813559322034 332.97872340425533,70.33898305084745 347.8723404255319,63.98305084745766 362.7659574468085,63.98305084745766 377.6595744680851,62.71186440677968 392.5531914893617,61.4406779661017 407.4468085106383,61.4406779661017 422.3404255319149,61.4406779661017 437.2340425531915,61.4406779661017 452.12765957446805,60.16949152542372 467.02127659574467,57.62711864406782 481.9148936170213,56.35593220338984 496.8085106382979,55.08474576271186 511.70212765957444,53.81355932203394 526.5957446808511,53.81355932203394 541.4893617021277,52.54237288135596 556.3829787234042,57.62711864406782 571.2765957446809,60.16949152542372 586.1702127659574,62.71186440677968 601.063829787234,62.71186440677968 615.9574468085107,62.71186440677968 630.8510638297872,61.4406779661017 645.7446808510638,60.16949152542372 660.6382978723404,52.54237288135596 675.531914893617,51.27118644067798 690.4255319148936,51.27118644067798 705.3191489361702,50.0 720.2127659574468,50.0 735.1063829787234,50.0 750.0,58.8983050847458 750,350" stroke="blue" fill="lightblue" stroke-width="2" /></svg>