<svg xmlns="http://www.w3.org/2000/svg" width="800" height="400"><polyline points="53.07411065121571,115.625 50.0,125.0 65.58137743136881,134.375 113.29628150973046,153.125 164.11961645414112,162.5 200.09210424934705,171.875 301.4642124210697,190.625 333.09764451262157,209.375 349.22324248980686,237.5 348.3603342368646,256.25 311.8289172322676,331.25 312.74575725095343,350.0 419.23157739904394,312.5 455.5423644526343,265.625 456.24347740817166,256.25 426.93401413441273,246.875 437.12221498463106,237.5 454.6451359850329,228.125 474.6096951104313,218.75 523.2316334321107,200.0 601.1287148130641,153.125 599.3587723169783,153.125 588.4008180819044,143.75 613.2927794471487,134.375 630.5852647210017,134.375 688.7678342543644,134.375 702.54004608713,134.375 708.8206453601654,125.0 696.0682341898887,106.25 707.7371071560423,96.875 745.7737107156913,87.5 750.0,78.125 746.0335637690412,78.125 696.4849796529594,68.75 578.0165017194479,106.25 562.7342004441203,125.0 508.58670757068643,143.75 471.14825632294577,143.75 446.5945942160858,143.75 434.91591547421586,134.375 440.34831515770946,125.0 517.6717586658713,68.75 526.7568097608821,59.375 520.1330083419523,59.375 497.81016018427607,50.0 461.87199260372927,50.0 370.3007571459551,50.0 53.07411065121571,115.625" stroke="blue" fill="lightgrey" stroke-width="2" /></svg>